<svg viewBox="0 0 32 32" xmlns="http://www.w3.org/2000/svg" xml:space="preserve"
     style="fill-rule:evenodd;clip-rule:evenodd;stroke-linecap:round;stroke-linejoin:round"><path d="M31.997 8.001v15.997a8.003 8.003 0 0 1-7.999 7.998H8.002a8.002 8.002 0 0 1-7.999-7.998V8a8.002 8.002 0 0 1 8-7.997h15.995c4.414 0 8 3.584 8 7.997Z"/>
    <circle cx="12" cy="4.5" r="2.5" style="fill:none;stroke:#fff;stroke-width:2px"
            transform="matrix(.9 0 0 .9 5.2 5.2)"/>
    <path d="m10.2 6.3-3.9 3.9" style="fill:none;fill-rule:nonzero;stroke:#fff;stroke-width:2px"
          transform="matrix(.9 0 0 .9 5.2 5.2)"/>
    <circle cx="4.5" cy="12" r="2.5" style="fill:none;stroke:#fff;stroke-width:2px"
            transform="matrix(.9 0 0 .9 5.2 5.2)"/>
    <path d="M7 12h10" style="fill:none;fill-rule:nonzero;stroke:#fff;stroke-width:2px"
          transform="matrix(.9 0 0 .9 5.2 5.2)"/>
    <circle cx="19.5" cy="12" r="2.5" style="fill:none;stroke:#fff;stroke-width:2px"
            transform="matrix(.9 0 0 .9 5.2 5.2)"/>
    <path d="m13.8 17.7 3.9-3.9" style="fill:none;fill-rule:nonzero;stroke:#fff;stroke-width:2px"
          transform="matrix(.9 0 0 .9 5.2 5.2)"/>
    <circle cx="12" cy="19.5" r="2.5" style="fill:none;stroke:#fff;stroke-width:2px"
            transform="matrix(.9 0 0 .9 5.2 5.2)"/>
</svg>
